<svg width="38" height="43" viewBox="0 0 38 43" fill="none" xmlns="http://www.w3.org/2000/svg">
<g filter="url(#filter0_d_118_56)">
<path d="M25.7292 3.16669C26.3304 3.16669 26.8272 3.61342 26.9059 4.19305L26.9167 4.35419L26.9157 5.5401L28.1019 5.54147C30.0691 5.54215 31.6638 7.13664 31.6644 9.10403L31.6657 25.3334H25.7217L25.4779 25.3416C23.7084 25.4613 22.2932 26.873 22.1683 28.6409L22.1592 28.8959V34.8406H9.11012C7.14289 34.8403 5.54811 33.2456 5.5476 31.2783L5.54553 9.1045C5.54502 7.13691 7.13988 5.54147 9.10747 5.54147L10.2908 5.5401L10.2917 4.35419C10.2917 3.69835 10.8233 3.16669 11.4792 3.16669C12.0804 3.16669 12.5772 3.61342 12.6558 4.19305L12.6667 4.35419L12.6658 5.5401H17.4189L17.4197 4.35419C17.4197 3.69835 17.9514 3.16669 18.6072 3.16669C19.2084 3.16669 19.7052 3.61342 19.7839 4.19305L19.7947 4.35419L19.7939 5.5401H24.5407L24.5417 4.35419C24.5417 3.69835 25.0733 3.16669 25.7292 3.16669ZM30.9691 27.7084L24.5328 34.1446L24.5342 28.8959L24.5452 28.7347C24.6166 28.2077 25.0338 27.7907 25.5605 27.7191L25.7217 27.7084H30.9691ZM17.81 25.3334H11.4795L11.3183 25.3441C10.7387 25.4228 10.292 25.9197 10.292 26.5209C10.292 27.122 10.7387 27.6189 11.3183 27.6976L11.4795 27.7084H17.81L17.9711 27.6976C18.5508 27.6189 18.9975 27.122 18.9975 26.5209C18.9975 25.9197 18.5508 25.4228 17.9711 25.3441L17.81 25.3334ZM25.7266 19H11.4795L11.3183 19.0108C10.7387 19.0895 10.292 19.5863 10.292 20.1875C10.292 20.7887 10.7387 21.2856 11.3183 21.3643L11.4795 21.375H25.7266L25.8878 21.3643C26.4675 21.2856 26.9141 20.7887 26.9141 20.1875C26.9141 19.5863 26.4675 19.0895 25.8878 19.0108L25.7266 19ZM25.7266 12.6667H11.4795L11.3183 12.6775C10.7387 12.7562 10.292 13.253 10.292 13.8542C10.292 14.4554 10.7387 14.9522 11.3183 15.0308L11.4795 15.0417H25.7266L25.8878 15.0308C26.4675 14.9522 26.9141 14.4554 26.9141 13.8542C26.9141 13.253 26.4675 12.7562 25.8878 12.6775L25.7266 12.6667Z" fill="white"/>
</g>
<defs>
<filter id="filter0_d_118_56" x="-4" y="0" width="46" height="46" filterUnits="userSpaceOnUse" color-interpolation-filters="sRGB">
<feFlood flood-opacity="0" result="BackgroundImageFix"/>
<feColorMatrix in="SourceAlpha" type="matrix" values="0 0 0 0 0 0 0 0 0 0 0 0 0 0 0 0 0 0 127 0" result="hardAlpha"/>
<feOffset dy="4"/>
<feGaussianBlur stdDeviation="2"/>
<feComposite in2="hardAlpha" operator="out"/>
<feColorMatrix type="matrix" values="0 0 0 0 0 0 0 0 0 0 0 0 0 0 0 0 0 0 0.25 0"/>
<feBlend mode="normal" in2="BackgroundImageFix" result="effect1_dropShadow_118_56"/>
<feBlend mode="normal" in="SourceGraphic" in2="effect1_dropShadow_118_56" result="shape"/>
</filter>
</defs>
</svg>
