<svg width="69" height="79" viewBox="0 0 69 79" fill="none" xmlns="http://www.w3.org/2000/svg">
<path d="M32.5 21.625C32.5 21.625 20.9013 31.6375 14.4194 37.06C14.0388 37.405 13.75 37.9075 13.75 38.5C13.75 39.5369 14.5881 40.375 15.625 40.375H19.375V53.5C19.375 54.5369 20.2131 55.375 21.25 55.375H26.875C27.9119 55.375 28.75 54.535 28.75 53.5V46H36.25V53.5C36.25 54.535 37.0881 55.375 38.125 55.375H43.75C44.7869 55.375 45.625 54.5369 45.625 53.5V40.375H49.375C50.4119 40.375 51.25 39.5369 51.25 38.5C51.25 37.9075 50.9613 37.405 50.5319 37.06C44.095 31.6375 32.5 21.625 32.5 21.625Z" fill="white"/>
</svg>
