<svg width="41" height="41" viewBox="0 0 41 41" fill="none" xmlns="http://www.w3.org/2000/svg">
<path d="M20.4998 0C9.17823 0 0 9.17837 0 20.4999C0 31.8211 9.17809 41.0003 20.4995 41.0003C31.8209 41.0003 41 31.8211 41 20.4999C41 9.17837 31.8211 0 20.4998 0ZM25.8607 29.8208C25.4867 30.1945 24.9968 30.3813 24.5074 30.3813C24.0179 30.3813 23.5276 30.1945 23.1541 29.8206L15.4605 22.1274C15.346 22.054 15.2365 21.9696 15.1369 21.8696C14.7548 21.4871 14.5704 20.9841 14.5797 20.4833C14.5708 19.9821 14.7548 19.4788 15.1369 19.0966C15.2372 18.9967 15.346 18.9123 15.4605 18.8389L23.1197 11.1797C23.8672 10.4328 25.0795 10.4326 25.8268 11.1801C26.5743 11.9273 26.5743 13.1392 25.8268 13.8872L19.2306 20.4834L25.8608 27.1139C26.6081 27.8613 26.6081 29.0733 25.8607 29.8208Z" fill="#6D9773"/>
</svg>
